#N canvas 827 239 527 327 12;
#X obj 517 221 r button @hv_param;
#X obj 517 377 osc~;
#X obj 461 221 bng 25 250 50 0 empty empty empty 17 7 0 10 #e4e4e4 #4d4d4d #373737;
#X obj 412 285 delay 1000;
#X msg 412 326 440;
#X msg 517 326 880;
#X obj 337 285 loadbang;
#X obj 517 411 dac~;
#X connect 0 0 5 0;
#X connect 0 0 3 0 32.................U....z7+++eE....M++++qB....;
#X connect 1 0 7 0;
#X connect 1 0 7 1;
#X connect 2 0 5 0 32.................Y....bE...PF....WA...zD....;
#X connect 2 0 3 0 32.................W.....8++++E....P++++eB....;
#X connect 3 0 4 0;
#X connect 4 0 1 0;
#X connect 5 0 1 0;
#X connect 6 0 4 0;
