#N canvas 827 239 527 327 12;
#X obj 126 179 r knob @hv_param;
#X text 126 142 Input (ADC 0 \, pin 15);
#X text 400 142 Input (ADC 1 \, pin 16);
#X obj 400 179 r button @hv_param;
#X obj 321 687 dac~;
#X obj 126 305 hv.osc~ saw;
#X obj 126 487 vcf~;
#X obj 256 329 vsl 17 128 0 5000 0 0 empty empty empty 0 -9 0 10 #e4e4e4 #4d4d4d #373737 0 1;
#X obj 308 329 vsl 17 128 0.05 5 0 0 empty empty empty 0 -9 0 10 #e4e4e4 #4d4d4d #373737 0 1;
#X text 242 304 cutoff / resonance, f 17;
#X msg 400 215 400 4 \, 200 10 4;
#X obj 400 252 hv.vline~;
#X obj 400 286 osc~;
#X obj 522 252 hv.vline~;
#X msg 522 215 1 4 \, 0 100 4;
#X obj 522 286 pow~ 4;
#X obj 493 348 *~;
#X obj 622 252 hv.vline~;
#X msg 622 215 0.4 4 \, 0 300 4;
#X obj 622 286 pow~ 2;
#X obj 622 341 *~;
#X obj 690 286 noise~;
#X obj 493 398 *~ 0.5;
#X obj 331 65 bng 25 250 50 0 empty empty empty 17 7 0 10 #e4e4e4 #4d4d4d #373737;
#X text 442 101 Snare;
#X text 156 101 Saw Wave;
#X obj 126 215 / 8;
#X text 51 178 0 - 1023;
#X text 51 214 0 - 128;
#X obj 126 252 mtof;
#X obj 294 67 vsl 17 128 0 1023 0 0 empty empty empty 0 -9 0 10 #e4e4e4 #4d4d4d #373737 0 1;
#X obj 321 645 +~;
#X text 272 711 Output (set device in settings);
#X obj 126 580 clip~ -1 1;
#X obj 51 375 vsl 17 128 0.1 1 0 0 empty empty empty 0 -9 0 10 #e4e4e4 #4d4d4d #373737 0 1;
#X text 9 347 signal gain (.1-1);
#X obj 126 532 *~;
#X obj 602 447 vsl 17 128 0.1 1 0 0 empty empty empty 0 -9 0 10 #e4e4e4 #4d4d4d #373737 0 1;
#X text 560 417 signal gain (.1-1);
#X obj 493 580 *~;
#X text 292 35 Test Controls;
#X connect 0 0 26 0;
#X connect 3 0 10 0;
#X connect 3 0 14 0;
#X connect 3 0 18 0;
#X connect 5 0 6 0;
#X connect 6 0 36 0;
#X connect 7 0 6 1 32.................N....D4+++uC....Q9+++uA....;
#X connect 8 0 6 2 32.................S....v1++++D....r8+++uA....;
#X connect 10 0 11 0;
#X connect 11 0 12 0;
#X connect 12 0 16 0 32.................V....zE...fE....cA...rB....;
#X connect 13 0 15 0;
#X connect 14 0 13 0;
#X connect 15 0 16 1 32.................V....79+++uE....u++++uB....;
#X connect 16 0 22 0;
#X connect 17 0 19 0;
#X connect 18 0 17 0;
#X connect 19 0 20 0 32.................R.........fD.........PB....;
#X connect 20 0 22 0 32.................M.....3+++eC.....9+++aB....;
#X connect 21 0 20 1 32.................R....f7+++uD....H++++SB....;
#X connect 22 0 39 0;
#X connect 23 0 18 0 32.................xA...LR...fb....iD...zG....;
#X connect 23 0 10 0 32.................wA...TD...Pb....EA...zG....;
#X connect 23 0 14 0 32.................zA...7K....c....+B...zG....;
#X connect 26 0 29 0;
#X connect 29 0 5 0;
#X connect 30 0 26 0 32.................F....z0+++uA....c8+++GA....;
#X connect 31 0 4 0;
#X connect 31 0 4 1;
#X connect 33 0 31 0 32.................e....LL...vG....CC...HE....;
#X connect 34 0 36 1 32.................I....nE...PB....ZA...nA....;
#X connect 36 0 33 0;
#X connect 37 0 39 1 32.................A....L5+++e.....i9+++K.....;
#X connect 39 0 31 1 32.................e.....1++++G....f8+++KE....;
